<svg width="98" height="28" viewBox="0 0 3263 1001" fill="none" xmlns="http://www.w3.org/2000/svg">
<g clip-path="url(#clip0_3_582)">
<path fill-rule="evenodd" clip-rule="evenodd" d="M600.037 944.989H400.037C304.187 944.989 237.882 944.871 187.977 938.161C139.668 931.667 115.117 919.924 97.8578 902.665C80.5986 885.406 68.8564 860.855 62.3614 812.546C55.6518 762.641 55.534 696.336 55.534 600.486V400.486C55.534 304.637 55.6518 238.332 62.3614 188.427C68.8564 140.118 80.5986 115.567 97.8578 98.3076C115.117 81.0484 139.668 69.3062 187.977 62.8112C237.882 56.1016 304.187 55.9837 400.037 55.9837H600.037C695.886 55.9837 762.191 56.1016 812.096 62.8112C860.405 69.3062 884.956 81.0484 902.215 98.3076C919.475 115.567 931.217 140.118 937.712 188.427C944.421 238.332 944.539 304.637 944.539 400.486V600.486C944.539 696.336 944.421 762.641 937.712 812.546C931.217 860.855 919.475 885.406 902.215 902.665C884.956 919.924 860.405 931.667 812.096 938.161C762.191 944.871 695.886 944.989 600.037 944.989ZM58.6152 941.908C0.0365601 883.329 0.0365601 789.048 0.0365601 600.486V400.486C0.0365601 211.924 0.0365601 117.644 58.6152 59.065C117.194 0.486389 211.475 0.486328 400.037 0.486328H600.037C788.598 0.486328 882.879 0.486389 941.458 59.065C1000.04 117.644 1000.04 211.925 1000.04 400.486V600.486C1000.04 789.048 1000.04 883.329 941.458 941.908C882.879 1000.49 788.598 1000.49 600.037 1000.49H400.037C211.475 1000.49 117.194 1000.49 58.6152 941.908Z" fill="#2B3134"/>
<path d="M843.959 764.552C847.021 769.856 843.193 776.486 837.07 776.486H558.335C555.493 776.486 552.867 774.97 551.446 772.508L355.39 432.861C353.969 430.4 353.969 427.367 355.39 424.905L494.757 183.464C497.819 178.16 505.474 178.16 508.536 183.464L843.959 764.552Z" fill="#2B3134"/>
<path d="M202.24 690.218C203.661 687.756 206.287 686.24 209.129 686.24H493.127C496.913 686.24 499.279 690.339 497.386 693.618L451.849 772.507C450.428 774.969 447.802 776.485 444.96 776.485H160.962C157.176 776.485 154.81 772.386 156.703 769.107L202.24 690.218Z" fill="#2B3134"/>
</g>
<path d="M1706.33 655.171H1773.54V215.479L1706.33 215.479V655.171Z" fill="#2B3134"/>
<path fill-rule="evenodd" clip-rule="evenodd" d="M1569.88 618.454C1553.77 637.961 1522.49 662.392 1470.8 662.392C1430.14 662.392 1392.25 647.364 1364.53 619.405C1336.78 591.418 1319.55 550.823 1319.55 500.313C1319.55 400.077 1389.05 338.235 1470.8 338.235C1521 338.235 1553.25 361.647 1569.88 380.851V345.456H1637.09V655.171H1569.88V618.454ZM1571.08 500.313C1571.08 556.553 1534.69 599.392 1481.03 599.392C1425.44 599.392 1388.57 556.418 1388.57 500.313C1388.57 471.883 1397.89 447.113 1413.94 429.518C1429.95 411.976 1452.93 401.235 1481.03 401.235C1534.71 401.235 1571.08 443.497 1571.08 500.313Z" fill="#2B3134"/>
<path fill-rule="evenodd" clip-rule="evenodd" d="M2312.72 557.872H2377.86L2376.66 565.122C2371.97 593.211 2331.02 662.392 2227.9 662.392C2132.92 662.392 2065.22 590.926 2065.22 500.313C2065.22 406.793 2131.62 338.235 2222.48 338.235C2267.71 338.235 2307.29 355.109 2335.54 384.853C2363.77 414.582 2380.35 456.799 2380.35 506.933V513.159H2133.57C2139.05 562.343 2175.49 599.392 2227.9 599.392C2285.33 599.392 2306.35 569.184 2310.93 561.046L2312.72 557.872ZM2275.86 414.541C2261.57 403.58 2243.53 397.624 2222.48 397.624C2199.93 397.624 2181.16 404.03 2166.72 415.201C2154.2 424.897 2144.68 438.383 2138.85 454.973H2304.7C2298.19 437.646 2288.31 424.09 2275.86 414.541Z" fill="#2B3134"/>
<path fill-rule="evenodd" clip-rule="evenodd" d="M2678.84 381.616V345.456H2746.06V648.945C2746.06 692.136 2732.04 729.388 2704.34 755.822C2676.66 782.234 2636.01 797.183 2583.98 797.183C2525.02 797.183 2486.64 777.838 2462.43 755.602C2438.39 733.532 2428.62 708.904 2426.26 698.456L2424.55 690.857H2496.09L2497.89 693.947C2499.79 697.202 2505.71 707.166 2518.81 716.359C2531.85 725.52 2552.41 734.183 2583.98 734.183C2615.14 734.183 2638.74 726.033 2654.48 711.731C2670.14 697.505 2678.84 676.465 2678.84 648.945V618.707C2661.98 638.445 2628.9 662.994 2576.76 662.994C2535.52 662.994 2497.19 647.985 2469.16 620.032C2441.1 592.047 2423.7 551.442 2423.7 500.915C2423.7 450.391 2441.09 409.642 2469.15 381.51C2497.17 353.407 2535.5 338.235 2576.76 338.235C2628.51 338.235 2661.85 362.179 2678.84 381.616ZM2586.99 599.994C2642.6 599.994 2680.05 556.389 2680.05 500.915C2680.05 472.264 2670.66 447.346 2654.38 429.604C2638.11 411.874 2614.87 401.235 2586.99 401.235C2558.25 401.235 2534.81 412.006 2518.52 429.623C2502.19 447.289 2492.72 472.195 2492.72 500.915C2492.72 556.337 2530.12 599.994 2586.99 599.994Z" fill="#2B3134"/>
<path d="M2883.72 655.171H2816.51V345.456H2883.72V655.171Z" fill="#2B3134"/>
<path fill-rule="evenodd" clip-rule="evenodd" d="M2936.88 500.313C2936.88 408.402 3007.08 338.235 3099.56 338.235C3191.43 338.235 3262.25 408.386 3262.25 500.313C3262.25 592.241 3191.43 662.392 3099.56 662.392C3007.08 662.392 2936.88 592.225 2936.88 500.313ZM3005.9 500.313C3005.9 555.735 3043.9 599.392 3099.56 599.392C3155.25 599.392 3193.23 556.313 3193.23 500.313C3193.23 444.314 3155.25 401.235 3099.56 401.235C3043.9 401.235 3005.9 444.892 3005.9 500.313Z" fill="#2B3134"/>
<path d="M2027.98 655.171V592.171L1966.58 592.171C1939.08 592.171 1925.33 592.171 1916.78 583.626C1908.4 575.246 1908.24 561.857 1908.24 535.398V407.252H2027.98V345.455H1908.24V215.479L1841.02 257.014V549.657C1841.02 557.256 1841.46 564.49 1842.34 571.345C1844.4 600.339 1849.72 619.118 1863.4 632.799C1878.23 647.633 1899.06 652.631 1932.4 654.316C1938.44 654.888 1944.76 655.171 1951.35 655.171H2027.98Z" fill="#2B3134"/>
<path d="M2850.33 309.65C2874.35 309.65 2893.82 290.178 2893.82 266.157C2893.82 242.137 2874.35 222.664 2850.33 222.664C2826.31 222.664 2806.84 242.137 2806.84 266.157C2806.84 290.178 2826.31 309.65 2850.33 309.65Z" fill="#2B3134"/>
<defs>
<clipPath id="clip0_3_582">
<rect width="1000" height="1000" fill="white" transform="matrix(1 0 0 -1 0.0365601 1000.49)"/>
</clipPath>
</defs>
</svg>
